# ProBuilder 5.2.2
# https://unity3d.com/unity/features/worldbuilding/probuilder
# 2024-05-24 오전 12:40:36

mtllib ./MonsterSwingAttack.mtl
o MonsterSwingAttack

g Arch
v -2.5 0.9999998 0.9999999
v -0.5 0.9999998 0.9999999
v -2.5 -1 0.9999998
v -0.5 -1 0.9999998
v -2.377641 -0.9999999 0.3819659
v -2.377641 0.9999998 0.381966
v -0.4755283 -1 0.9999998
v -0.4755283 0.9999998 0.9999999
v -2.022542 -0.9999999 -0.1755705
v -2.022542 0.9999998 -0.1755704
v -0.4045085 -1 0.9999998
v -0.4045085 0.9999998 0.9999999
v -1.469463 -0.9999999 -0.6180341
v -1.469463 0.9999999 -0.6180339
v -0.2938927 -1 0.9999999
v -0.2938927 0.9999998 1
v -0.7725424 -0.9999999 -0.9021131
v -0.7725424 0.9999999 -0.902113
v -0.1545085 -1 0.9999999
v -0.1545085 0.9999998 1
v 1.111403E-07 -0.9999999 -1
v 1.111403E-07 0.9999999 -0.9999999
v 2.371754E-08 -1 0.9999999
v 2.371754E-08 0.9999998 1
v 0.7725424 -0.9999999 -0.9021131
v 0.7725424 0.9999999 -0.902113
v 0.1545085 -1 0.9999999
v 0.1545085 0.9999998 1
v 1.469463 -0.9999999 -0.6180341
v 1.469463 0.9999999 -0.6180339
v 0.2938926 -1 0.9999999
v 0.2938926 0.9999998 1
v 2.022543 -0.9999999 -0.1755704
v 2.022543 0.9999998 -0.1755703
v 0.4045085 -1 0.9999998
v 0.4045085 0.9999998 0.9999999
v 2.377641 -0.9999999 0.3819658
v 2.377641 0.9999998 0.3819659
v 0.4755282 -1 0.9999998
v 0.4755282 0.9999998 0.9999999
v 2.5 -1 0.9999999
v 2.5 0.9999998 1
v 0.5 -1 0.9999998
v 0.5 0.9999998 0.9999999

vt -2.5 0.9999998
vt -0.5 0.9999998
vt -2.5 -0.9999999
vt -0.5 -0.9999999
vt 1.466487 -1
vt 0.8364568 -0.9999999
vt 1.466487 0.9999998
vt 0.8364569 0.9999998
vt -0.4755258 -0.9999999
vt -0.4999976 -0.9999999
vt -0.4755258 0.9999998
vt -0.4999976 0.9999998
vt 1.599444 -1
vt 0.9384277 -1
vt 1.599444 0.9999998
vt 0.9384279 0.9999998
vt -0.4045085 -0.9999999
vt -0.4045085 0.9999998
vt 1.469662 -1
vt 0.7613751 -0.9999999
vt 1.469662 0.9999998
vt 0.7613751 0.9999998
vt -0.2938921 -0.9999999
vt -0.2938921 0.9999998
vt 1.127471 -0.9999999
vt 0.3748754 -0.9999999
vt 1.127471 0.9999998
vt 0.3748755 0.9999998
vt -0.1545085 -0.9999999
vt -0.1545085 0.9999998
vt 0.6530169 -0.9999999
vt -0.1257025 -0.9999999
vt 0.6530169 0.9999998
vt -0.1257025 0.9999998
vt 2.371754E-08 -0.9999999
vt 2.371754E-08 0.9999998
vt 0.1257023 -0.9999999
vt -0.6530167 -0.9999999
vt 0.1257023 0.9999999
vt -0.6530167 0.9999999
vt 0.1545085 -0.9999999
vt 0.1545085 0.9999998
vt -0.3748753 -0.9999999
vt -1.12747 -0.9999999
vt -0.3748753 0.9999998
vt -1.12747 0.9999998
vt 0.2938926 -0.9999999
vt 0.2938926 0.9999998
vt -0.7613752 -0.9999999
vt -1.469663 -1
vt -0.7613754 0.9999998
vt -1.469663 0.9999998
vt 0.404508 -0.9999999
vt 0.404508 0.9999998
vt -0.9384272 -1
vt -1.599443 -1
vt -0.9384273 0.9999998
vt -1.599443 0.9999998
vt 0.4755282 -0.9999999
vt 0.4755282 0.9999998
vt -0.8364573 -0.9999999
vt -1.466487 -1
vt -0.8364574 0.9999998
vt -1.466487 0.9999998
vt 0.4999976 -0.9999999
vt 0.4999976 0.9999998
vt 0.5000001 0.9999998
vt 2.5 0.9999998
vt 0.5000001 -0.9999999
vt 2.5 -0.9999999
vt 2.377641 0.3819659
vt -2.377641 0.381966
vt 2.022542 -0.1755704
vt -2.022542 -0.1755705
vt 1.469463 -0.6180341
vt -1.469463 -0.6180339
vt -0.2938927 1
vt 0.7725424 -0.9021131
vt -0.7725424 -0.9021131
vt -1.035133E-07 -1
vt 0.2938926 1
vt 2.5 1

vn 0 -5.960465E-08 1
vn -0.9809598 1.157586E-08 -0.1942108
vn -0.9281875 2.217966E-08 -0.372113
vn -0.7441161 3.981891E-08 -0.6680504
vn -0.5063094 5.140019E-08 -0.862352
vn -0.2537421 5.76539E-08 -0.9672719
vn 1.50203E-08 3.725291E-08 -1
vn 0.2537422 5.019902E-08 -0.9672719
vn 0.5063093 5.140019E-08 -0.862352
vn 0.7441161 3.981891E-08 -0.6680503
vn 0.9281875 2.217966E-08 -0.3721129
vn 0.9809598 8.681912E-09 -0.1942111
vn 0 1 9.644236E-08
vn 2.839463E-15 -1 -9.644235E-08
vn 1.419731E-15 -0.5 -4.822117E-08
vn 0 0 0
vn -1.419731E-15 0.5 4.822117E-08

usemtl Lit
f 3/3/1 4/4/1 2/2/1 1/1/1
f 1/7/2 6/8/3 5/6/3 3/5/2
f 8/11/1 2/12/1 4/10/1 7/9/1
f 6/15/3 10/16/4 9/14/4 5/13/3
f 12/18/1 8/11/1 7/9/1 11/17/1
f 10/21/4 14/22/5 13/20/5 9/19/4
f 16/24/1 12/18/1 11/17/1 15/23/1
f 14/27/5 18/28/6 17/26/6 13/25/5
f 20/30/1 16/24/1 15/23/1 19/29/1
f 18/33/6 22/34/7 21/32/7 17/31/6
f 24/36/1 20/30/1 19/29/1 23/35/1
f 22/39/7 26/40/8 25/38/8 21/37/7
f 28/42/1 24/36/1 23/35/1 27/41/1
f 26/45/8 30/46/9 29/44/9 25/43/8
f 32/48/1 28/42/1 27/41/1 31/47/1
f 30/51/9 34/52/10 33/50/10 29/49/9
f 36/54/1 32/48/1 31/47/1 35/53/1
f 34/57/10 38/58/11 37/56/11 33/55/10
f 40/60/1 36/54/1 35/53/1 39/59/1
f 38/63/11 42/64/12 41/62/12 37/61/11
f 44/66/1 40/60/1 39/59/1 43/65/1
f 43/69/1 41/70/1 42/68/1 44/67/1
f 2/67/13 8/60/13 6/71/13 1/68/13
f 7/11/15 4/2/16 3/1/15 5/72/14
f 8/60/13 12/54/13 10/73/13 6/71/13
f 11/18/14 7/11/14 5/72/14 9/74/14
f 12/54/13 16/48/13 14/75/13 10/73/13
f 15/77/14 11/18/14 9/74/14 13/76/14
f 16/48/13 20/42/13 18/78/13 14/75/13
f 19/30/14 15/24/14 13/76/14 17/79/14
f 20/42/13 24/36/13 22/80/13 18/78/13
f 23/36/14 19/30/14 17/79/14 21/35/14
f 24/36/13 28/30/13 26/79/13 22/80/13
f 27/42/14 23/36/14 21/35/14 25/78/14
f 28/30/13 32/24/13 30/76/13 26/79/13
f 31/48/14 27/42/14 25/78/14 29/75/14
f 32/24/13 36/18/13 34/74/13 30/76/13
f 35/54/14 31/81/14 29/75/14 33/73/14
f 36/18/13 40/11/13 38/72/13 34/74/13
f 39/60/14 35/54/14 33/73/14 37/71/14
f 40/11/17 44/2/16 42/1/17 38/72/13
f 43/67/14 39/60/14 37/71/14 41/82/14

